Coordinates
version=1
nRows=21
nColumns=22
inDegrees=yes

Units are S.I. units (second, meters, Newtons, ...)
If the header above contains a line with 'inDegrees', this indicates whether rotational values are in degrees (yes) or radians (no).

endheader
time	pelvis_tilt	pelvis_list	pelvis_rotation	pelvis_tx	pelvis_ty	pelvis_tz	hip_flexion_r	hip_adduction_r	hip_rotation_r	knee_angle_r	ankle_angle_r	subtalar_angle_r	hip_flexion_l	hip_adduction_l	hip_rotation_l	knee_angle_l	ankle_angle_l	subtalar_angle_l	lumbar_extension	lumbar_bending	lumbar_rotation
      4.95000000	     -1.98303448	     -2.22343096	    -96.87604400	      0.75563703	      0.91243283	      0.16307311	     24.83124671	      1.93267792	    -19.31110725	    -32.19133421	      0.34834827	     -5.26257749	     -4.77612356	     -5.87881063	    -25.33830009	    -20.13038439	     14.30796874	      3.34507247	    -11.85708763	     -2.69102816	     -9.47152882
      4.96000000	     -2.06882159	     -2.25901616	    -97.12725148	      0.75503040	      0.91148146	      0.17028693	     24.48146060	      1.93768498	    -20.75202196	    -29.11033292	      0.48518715	     -5.55572715	     -5.32528080	     -5.89624706	    -25.63204103	    -20.23159849	     14.62517995	      3.31506407	    -11.94248577	     -2.56765058	     -9.51738951
      4.97000000	     -2.12951679	     -2.31023620	    -97.35354606	      0.75428689	      0.91049342	      0.17763679	     24.10303617	      1.94495195	    -22.23425659	    -26.06865912	      0.62371600	     -5.78955389	     -5.89522585	     -5.89205474	    -25.89392421	    -20.32859399	     14.90272038	      3.31002696	    -12.02725542	     -2.47323235	     -9.54610315
      4.98000000	     -2.16194307	     -2.37405497	    -97.56195085	      0.75340645	      0.90947038	      0.18511711	     23.71579095	      1.95613557	    -23.69832028	    -23.10129299	      0.77241270	     -5.93340618	     -6.48279541	     -5.86365267	    -26.13132477	    -20.42248855	     15.15490057	      3.33259224	    -12.10524644	     -2.40675966	     -9.57579916
      4.99000000	     -2.16249337	     -2.42923564	    -97.75296676	      0.75236986	      0.90838795	      0.19267737	     23.36069040	      1.97019151	    -25.07749430	    -20.24697399	      0.95154619	     -5.93905866	     -7.04716981	     -5.81982739	    -26.33868642	    -20.54235502	     15.36698087	      3.36952685	    -12.15624732	     -2.37464594	     -9.61388358
      5.00000000	     -2.12606109	     -2.47574879	    -97.93736976	      0.75119691	      0.90725833	      0.20032253	     23.04772811	      1.97420576	    -26.30794932	    -17.54166674	      1.16492931	     -5.80023310	     -7.59255730	     -5.74951780	    -26.51256169	    -20.68162275	     15.52943301	      3.41873236	    -12.17646223	     -2.37833120	     -9.65165929
      5.01000000	     -2.05402667	     -2.52267447	    -98.12455570	      0.74988926	      0.90611434	      0.20804420	     22.77109466	      1.95741884	    -27.34628437	    -15.02204840	      1.40581311	     -5.51314747	     -8.13117920	     -5.64938801	    -26.64904480	    -20.83368804	     15.63579828	      3.48374323	    -12.17810973	     -2.41766914	     -9.68143417
      5.02000000	     -1.94837782	     -2.57414842	    -98.31309221	      0.74847320	      0.90497441	      0.21585828	     22.52396934	      1.90311327	    -28.18286228	    -12.72231527	      1.66855645	     -5.08802565	     -8.66518822	     -5.52206783	    -26.74517310	    -21.00597387	     15.67171423	      3.55848514	    -12.16203734	     -2.48457272	     -9.71119926
      5.03000000	     -1.80532294	     -2.63551404	    -98.50853612	      0.74696068	      0.90385837	      0.22378434	     22.30341744	      1.78841700	    -28.82545153	    -10.69463104	      1.95123602	     -4.55892622	     -9.20459241	     -5.35837732	    -26.79800168	    -21.18894173	     15.62677395	      3.64174379	    -12.13123523	     -2.58218877	     -9.74408642
      5.04000000	     -1.63077177	     -2.71545281	    -98.70446199	      0.74537703	      0.90278626	      0.23186043	     22.10172408	      1.59612230	    -29.31448470	     -8.99738063	      2.25407743	     -3.97234433	     -9.76171137	     -5.16307694	    -26.80276600	    -21.38078947	     15.49997495	      3.73343494	    -12.09265605	     -2.70075650	     -9.78549303
      5.05000000	     -1.44835746	     -2.81181241	    -98.90455003	      0.74370383	      0.90175849	      0.24009531	     21.91993085	      1.33983998	    -29.69213119	     -7.67877893	      2.55898186	     -3.34939149	    -10.33052002	     -4.96971266	    -26.77625672	    -21.60307800	     15.31707386	      3.83800773	    -12.04810995	     -2.81523855	     -9.82943239
      5.06000000	     -1.22920357	     -2.94530741	    -99.08754803	      0.74199591	      0.90082234	      0.24851783	     21.75919713	      0.96051011	    -30.04517278	     -6.81663487	      2.88234308	     -2.91678200	    -10.94211483	     -4.72994936	    -26.66317640	    -21.80579446	     15.02994255	      3.91208303	    -12.01757385	     -2.95436741	     -9.93270586
      5.07000000	     -1.04484849	     -3.11728458	    -99.27282005	      0.74016417	      0.89997571	      0.25712617	     21.58344923	      0.55092771	    -30.33898962	     -6.38205944	      3.17698133	     -2.47402793	    -11.58437842	     -4.54306862	    -26.52040525	    -22.06927000	     14.68661877	      3.99974691	    -12.01666357	     -3.04814552	    -10.03213524
      5.08000000	     -0.85066492	     -3.29361164	    -99.45466252	      0.73822371	      0.89916395	      0.26593876	     21.46331755	      0.05833612	    -30.64728724	     -6.43411898	      3.49191693	     -2.30799851	    -12.22716217	     -4.35038599	    -26.30187180	    -22.34751368	     14.27618118	      4.05281979	    -11.99562708	     -3.13921407	    -10.17141147
      5.09000000	     -0.69739562	     -3.49661797	    -99.64648767	      0.73608571	      0.89842776	      0.27495831	     21.32782310	     -0.43523641	    -30.93727382	     -6.87195817	      3.76109144	     -2.25804245	    -12.89210162	     -4.21615305	    -26.05431352	    -22.67793909	     13.79725254	      4.10992868	    -11.98940561	     -3.18806898	    -10.32012322
      5.10000000	     -0.59425796	     -3.69720025	    -99.85570623	      0.73371150	      0.89772521	      0.28417328	     21.19007072	     -0.89110646	    -31.19955639	     -7.62173324	      3.97698865	     -2.37887213	    -13.54324056	     -4.15287265	    -25.76436651	    -23.07427589	     13.25755926	      4.17150933	    -11.97025012	     -3.18520335	    -10.47477953
      5.11000000	     -0.55035699	     -3.89244177	   -100.09011091	      0.73104366	      0.89706151	      0.29356976	     21.02945489	     -1.26869001	    -31.43932212	     -8.58143193	      4.11800302	     -2.71339301	    -14.17229314	     -4.17303208	    -25.44533458	    -23.55144184	     12.64440813	      4.26166769	    -11.93763926	     -3.12829763	    -10.62948661
      5.12000000	     -0.59435818	     -4.06142650	   -100.36788188	      0.72801279	      0.89642892	      0.30313233	     20.84397479	     -1.50372340	    -31.66151115	     -9.64572567	      4.14100783	     -3.35282261	    -14.75654600	     -4.31545039	    -25.13977290	    -24.13103894	     11.97160245	      4.41891297	    -11.87286435	     -2.99251463	    -10.77527334
      5.13000000	     -0.74886976	     -4.17487120	   -100.69209042	      0.72459308	      0.89582607	      0.31281934	     20.63647964	     -1.54141074	    -31.87195592	    -10.69949967	      4.05281986	     -4.18716691	    -15.24604972	     -4.60995992	    -24.81778697	    -24.85276979	     11.17810874	      4.62582750	    -11.75581408	     -2.75255368	    -10.86865210
      5.14000000	     -1.01227952	     -4.22712530	   -101.07958107	      0.72076490	      0.89527649	      0.32258529	     20.41204664	     -1.36555193	    -32.05374258	    -11.67468199	      3.79462398	     -5.21375725	    -15.62766925	     -5.05433098	    -24.50683779	    -25.73143941	     10.28286909	      4.89933829	    -11.58365921	     -2.41433592	    -10.90994065
      5.15000000	     -1.35623561	     -4.23960182	   -101.54301514	      0.71655919	      0.89482022	      0.33236232	     20.19153480	     -1.02457167	    -32.21470737	    -12.60609428	      3.41405646	     -6.50845478	    -15.91799699	     -5.60876289	    -24.23863187	    -26.75860104	      9.27375476	      5.28579890	    -11.38863678	     -2.01294278	    -10.92033196
